<svg width="156" height="56" viewBox="0 0 156 56" fill="none" xmlns="http://www.w3.org/2000/svg">
<g filter="url(#filter0_d_1_2315)">
<rect x="8" y="4" width="140" height="40" rx="6" fill="#3B5999"/>
</g>
<path d="M65.4385 24.7822H61.4326V29H59.7031V19.0469H66.0264V20.4414H61.4326V23.4014H65.4385V24.7822ZM71.6592 26.6826H67.8037L66.9971 29H65.1992L68.959 19.0469H70.5107L74.2773 29H72.4727L71.6592 26.6826ZM68.2891 25.2881H71.1738L69.7314 21.1592L68.2891 25.2881ZM82.8564 25.7598C82.7562 26.8216 82.3643 27.651 81.6807 28.248C80.9971 28.8405 80.0879 29.1367 78.9531 29.1367C78.1602 29.1367 77.4606 28.9499 76.8545 28.5762C76.2529 28.1979 75.7881 27.6624 75.46 26.9697C75.1318 26.277 74.9609 25.4727 74.9473 24.5566V23.627C74.9473 22.6882 75.1136 21.861 75.4463 21.1455C75.779 20.43 76.2552 19.8786 76.875 19.4912C77.4993 19.1038 78.2194 18.9102 79.0352 18.9102C80.1335 18.9102 81.0176 19.2087 81.6875 19.8057C82.3574 20.4027 82.7471 21.2458 82.8564 22.335H81.1338C81.0518 21.6195 80.8421 21.1045 80.5049 20.79C80.1722 20.471 79.6823 20.3115 79.0352 20.3115C78.2832 20.3115 77.7044 20.5872 77.2988 21.1387C76.8978 21.6855 76.6927 22.4899 76.6836 23.5518V24.4336C76.6836 25.5091 76.875 26.3294 77.2578 26.8945C77.6452 27.4596 78.2103 27.7422 78.9531 27.7422C79.6322 27.7422 80.1426 27.5895 80.4844 27.2842C80.8262 26.9788 81.0426 26.4707 81.1338 25.7598H82.8564ZM90.2256 24.5566H86.1377V27.6191H90.916V29H84.4082V19.0469H90.8682V20.4414H86.1377V23.1895H90.2256V24.5566ZM92.3242 29V19.0469H95.7354C96.861 19.0469 97.7178 19.2725 98.3057 19.7236C98.8936 20.1748 99.1875 20.847 99.1875 21.7402C99.1875 22.196 99.0645 22.6061 98.8184 22.9707C98.5723 23.3353 98.2122 23.6178 97.7383 23.8184C98.276 23.9642 98.6908 24.2399 98.9824 24.6455C99.2786 25.0465 99.4268 25.5296 99.4268 26.0947C99.4268 27.029 99.126 27.7467 98.5244 28.248C97.9274 28.7493 97.0706 29 95.9541 29H92.3242ZM94.0537 24.5088V27.6191H95.9746C96.5169 27.6191 96.9408 27.4847 97.2461 27.2158C97.5514 26.9469 97.7041 26.5732 97.7041 26.0947C97.7041 25.0602 97.1755 24.5316 96.1182 24.5088H94.0537ZM94.0537 23.2373H95.749C96.2868 23.2373 96.7061 23.1165 97.0068 22.875C97.3122 22.6289 97.4648 22.2826 97.4648 21.8359C97.4648 21.3438 97.3236 20.9883 97.041 20.7695C96.763 20.5508 96.3278 20.4414 95.7354 20.4414H94.0537V23.2373ZM109.1 24.2832C109.1 25.2585 108.931 26.1152 108.594 26.8535C108.257 27.5872 107.773 28.1523 107.145 28.5488C106.52 28.9408 105.8 29.1367 104.984 29.1367C104.178 29.1367 103.458 28.9408 102.824 28.5488C102.195 28.1523 101.708 27.5895 101.361 26.8604C101.02 26.1312 100.846 25.2904 100.842 24.3379V23.7773C100.842 22.8066 101.013 21.9499 101.354 21.207C101.701 20.4642 102.186 19.8968 102.811 19.5049C103.439 19.1084 104.16 18.9102 104.971 18.9102C105.782 18.9102 106.5 19.1061 107.124 19.498C107.753 19.8854 108.238 20.446 108.58 21.1797C108.922 21.9089 109.095 22.7588 109.1 23.7295V24.2832ZM107.37 23.7637C107.37 22.6608 107.16 21.8154 106.741 21.2275C106.326 20.6396 105.736 20.3457 104.971 20.3457C104.223 20.3457 103.638 20.6396 103.214 21.2275C102.795 21.8109 102.58 22.638 102.571 23.709V24.2832C102.571 25.377 102.783 26.2223 103.207 26.8193C103.635 27.4163 104.228 27.7148 104.984 27.7148C105.75 27.7148 106.338 27.4232 106.748 26.8398C107.163 26.2565 107.37 25.4043 107.37 24.2832V23.7637ZM118.766 24.2832C118.766 25.2585 118.597 26.1152 118.26 26.8535C117.923 27.5872 117.439 28.1523 116.811 28.5488C116.186 28.9408 115.466 29.1367 114.65 29.1367C113.844 29.1367 113.124 28.9408 112.49 28.5488C111.861 28.1523 111.374 27.5895 111.027 26.8604C110.686 26.1312 110.512 25.2904 110.508 24.3379V23.7773C110.508 22.8066 110.679 21.9499 111.021 21.207C111.367 20.4642 111.852 19.8968 112.477 19.5049C113.105 19.1084 113.826 18.9102 114.637 18.9102C115.448 18.9102 116.166 19.1061 116.79 19.498C117.419 19.8854 117.904 20.446 118.246 21.1797C118.588 21.9089 118.761 22.7588 118.766 23.7295V24.2832ZM117.036 23.7637C117.036 22.6608 116.826 21.8154 116.407 21.2275C115.993 20.6396 115.402 20.3457 114.637 20.3457C113.889 20.3457 113.304 20.6396 112.88 21.2275C112.461 21.8109 112.246 22.638 112.237 23.709V24.2832C112.237 25.377 112.449 26.2223 112.873 26.8193C113.301 27.4163 113.894 27.7148 114.65 27.7148C115.416 27.7148 116.004 27.4232 116.414 26.8398C116.829 26.2565 117.036 25.4043 117.036 24.2832V23.7637ZM123.346 24.7002L122.218 25.8965V29H120.488V19.0469H122.218V23.7158L123.175 22.5332L126.087 19.0469H128.179L124.48 23.4561L128.391 29H126.34L123.346 24.7002Z" fill="white"/>
<mask id="mask0_1_2315" style="mask-type:alpha" maskUnits="userSpaceOnUse" x="23" y="14" width="10" height="20">
<path d="M33 14V18H31C30.31 18 30 18.81 30 19.5V22H33V26H30V34H26V26H23V22H26V18C26 16.9391 26.4214 15.9217 27.1716 15.1716C27.9217 14.4214 28.9391 14 30 14H33Z" fill="#5F5F5F"/>
</mask>
<g mask="url(#mask0_1_2315)">
<rect x="8" y="4" width="40" height="40" fill="white"/>
</g>
<defs>
<filter id="filter0_d_1_2315" x="0" y="0" width="156" height="56" filterUnits="userSpaceOnUse" color-interpolation-filters="sRGB">
<feFlood flood-opacity="0" result="BackgroundImageFix"/>
<feColorMatrix in="SourceAlpha" type="matrix" values="0 0 0 0 0 0 0 0 0 0 0 0 0 0 0 0 0 0 127 0" result="hardAlpha"/>
<feOffset dy="4"/>
<feGaussianBlur stdDeviation="4"/>
<feColorMatrix type="matrix" values="0 0 0 0 0.231373 0 0 0 0 0.34902 0 0 0 0 0.6 0 0 0 0.24 0"/>
<feBlend mode="multiply" in2="BackgroundImageFix" result="effect1_dropShadow_1_2315"/>
<feBlend mode="normal" in="SourceGraphic" in2="effect1_dropShadow_1_2315" result="shape"/>
</filter>
</defs>
</svg>
