<svg width="344" height="56" viewBox="0 0 344 56" fill="none" xmlns="http://www.w3.org/2000/svg">
<g filter="url(#filter0_d_1_2341)">
<rect x="8" y="4" width="328" height="40" rx="6" fill="url(#paint0_linear_1_2341)"/>
</g>
<path d="M158.642 27.6396V29H153.645V27.6396H158.642ZM154.123 19.0469V29H152.407V19.0469H154.123ZM167.453 23.75V24.2969C167.453 25.0488 167.355 25.7233 167.159 26.3203C166.963 26.9173 166.683 27.4255 166.318 27.8447C165.958 28.264 165.525 28.5853 165.02 28.8086C164.514 29.0273 163.953 29.1367 163.338 29.1367C162.727 29.1367 162.169 29.0273 161.663 28.8086C161.162 28.5853 160.727 28.264 160.357 27.8447C159.988 27.4255 159.701 26.9173 159.496 26.3203C159.296 25.7233 159.195 25.0488 159.195 24.2969V23.75C159.195 22.998 159.296 22.3258 159.496 21.7334C159.697 21.1364 159.979 20.6283 160.344 20.209C160.713 19.7852 161.148 19.4639 161.649 19.2451C162.155 19.0218 162.714 18.9102 163.324 18.9102C163.939 18.9102 164.5 19.0218 165.006 19.2451C165.512 19.4639 165.947 19.7852 166.312 20.209C166.676 20.6283 166.956 21.1364 167.152 21.7334C167.353 22.3258 167.453 22.998 167.453 23.75ZM165.737 24.2969V23.7363C165.737 23.1803 165.683 22.6904 165.573 22.2666C165.468 21.8382 165.311 21.4805 165.102 21.1934C164.896 20.9017 164.644 20.6829 164.343 20.5371C164.042 20.3867 163.702 20.3115 163.324 20.3115C162.946 20.3115 162.609 20.3867 162.312 20.5371C162.016 20.6829 161.763 20.9017 161.554 21.1934C161.349 21.4805 161.191 21.8382 161.082 22.2666C160.973 22.6904 160.918 23.1803 160.918 23.7363V24.2969C160.918 24.8529 160.973 25.3451 161.082 25.7734C161.191 26.2018 161.351 26.5641 161.561 26.8604C161.775 27.152 162.03 27.373 162.326 27.5234C162.622 27.6693 162.96 27.7422 163.338 27.7422C163.721 27.7422 164.06 27.6693 164.356 27.5234C164.653 27.373 164.903 27.152 165.108 26.8604C165.313 26.5641 165.468 26.2018 165.573 25.7734C165.683 25.3451 165.737 24.8529 165.737 24.2969ZM176.812 23.9141V27.7148C176.67 27.9017 176.449 28.1068 176.148 28.3301C175.852 28.5488 175.458 28.738 174.966 28.8975C174.474 29.057 173.861 29.1367 173.127 29.1367C172.503 29.1367 171.931 29.0319 171.411 28.8223C170.892 28.6081 170.443 28.2959 170.064 27.8857C169.691 27.4756 169.401 26.9766 169.196 26.3887C168.991 25.7962 168.889 25.1217 168.889 24.3652V23.6748C168.889 22.9229 168.982 22.2529 169.169 21.665C169.36 21.0726 169.634 20.5713 169.989 20.1611C170.345 19.751 170.773 19.4411 171.274 19.2314C171.78 19.0173 172.352 18.9102 172.99 18.9102C173.806 18.9102 174.48 19.0469 175.014 19.3203C175.551 19.5892 175.966 19.9629 176.258 20.4414C176.549 20.9199 176.734 21.4668 176.812 22.082H175.13C175.075 21.7357 174.968 21.4258 174.809 21.1523C174.654 20.8789 174.43 20.6647 174.139 20.5098C173.852 20.3503 173.478 20.2705 173.018 20.2705C172.621 20.2705 172.272 20.3457 171.972 20.4961C171.671 20.6465 171.42 20.8675 171.22 21.1592C171.024 21.4508 170.876 21.8063 170.775 22.2256C170.675 22.6449 170.625 23.1234 170.625 23.6611V24.3652C170.625 24.9121 170.682 25.3975 170.796 25.8213C170.914 26.2451 171.083 26.6029 171.302 26.8945C171.525 27.1862 171.796 27.4072 172.115 27.5576C172.434 27.7035 172.794 27.7764 173.195 27.7764C173.587 27.7764 173.909 27.7445 174.159 27.6807C174.41 27.6123 174.608 27.5326 174.754 27.4414C174.904 27.3457 175.021 27.2546 175.103 27.168V25.1924H173.031V23.9141H176.812ZM180.544 19.0469V29H178.828V19.0469H180.544ZM190.572 19.0469V29H188.856L184.393 21.8701V29H182.677V19.0469H184.393L188.87 26.1904V19.0469H190.572Z" fill="black" fill-opacity="0.87"/>
<defs>
<filter id="filter0_d_1_2341" x="0" y="0" width="344" height="56" filterUnits="userSpaceOnUse" color-interpolation-filters="sRGB">
<feFlood flood-opacity="0" result="BackgroundImageFix"/>
<feColorMatrix in="SourceAlpha" type="matrix" values="0 0 0 0 0 0 0 0 0 0 0 0 0 0 0 0 0 0 127 0" result="hardAlpha"/>
<feOffset dy="4"/>
<feGaussianBlur stdDeviation="4"/>
<feColorMatrix type="matrix" values="0 0 0 0 0.105882 0 0 0 0 0.882353 0 0 0 0 0.686275 0 0 0 0.16 0"/>
<feBlend mode="normal" in2="BackgroundImageFix" result="effect1_dropShadow_1_2341"/>
<feBlend mode="normal" in="SourceGraphic" in2="effect1_dropShadow_1_2341" result="shape"/>
</filter>
<linearGradient id="paint0_linear_1_2341" x1="336" y1="24" x2="8" y2="24" gradientUnits="userSpaceOnUse">
<stop stop-color="#1DDE7D"/>
<stop offset="1" stop-color="#72DFC5"/>
</linearGradient>
</defs>
</svg>
