<svg width="156" height="56" viewBox="0 0 156 56" fill="none" xmlns="http://www.w3.org/2000/svg">
<g filter="url(#filter0_d_1_2327)">
<rect x="8" y="4" width="140" height="40" rx="6" fill="#55ACEE"/>
</g>
<path d="M72.4795 20.4414H69.376V29H67.6602V20.4414H64.584V19.0469H72.4795V20.4414ZM81.708 26.5391L83.2393 19.0469H84.9551L82.6582 29H81.0039L79.1104 21.7334L77.1758 29H75.5146L73.2178 19.0469H74.9336L76.4785 26.5254L78.3789 19.0469H79.8281L81.708 26.5391ZM88.0449 29H86.3223V19.0469H88.0449V29ZM97.1572 20.4414H94.0537V29H92.3379V20.4414H89.2617V19.0469H97.1572V20.4414ZM105.771 20.4414H102.667V29H100.951V20.4414H97.875V19.0469H105.771V20.4414ZM112.9 24.5566H108.812V27.6191H113.591V29H107.083V19.0469H113.543V20.4414H108.812V23.1895H112.9V24.5566ZM118.656 25.165H116.729V29H114.999V19.0469H118.499C119.647 19.0469 120.534 19.3044 121.158 19.8193C121.783 20.3343 122.095 21.0794 122.095 22.0547C122.095 22.7201 121.933 23.2783 121.609 23.7295C121.29 24.1761 120.844 24.5202 120.27 24.7617L122.505 28.9111V29H120.652L118.656 25.165ZM116.729 23.7773H118.506C119.089 23.7773 119.545 23.6315 119.873 23.3398C120.201 23.0436 120.365 22.6403 120.365 22.1299C120.365 21.5967 120.213 21.1842 119.907 20.8926C119.606 20.6009 119.155 20.4505 118.554 20.4414H116.729V23.7773Z" fill="white"/>
<mask id="mask0_1_2327" style="mask-type:alpha" maskUnits="userSpaceOnUse" x="18" y="15" width="21" height="17">
<path d="M38.92 17C38.15 17.35 37.32 17.58 36.46 17.69C37.34 17.16 38.02 16.32 38.34 15.31C37.51 15.81 36.59 16.16 35.62 16.36C34.83 15.5 33.72 15 32.46 15C30.11 15 28.19 16.92 28.19 19.29C28.19 19.63 28.23 19.96 28.3 20.27C24.74 20.09 21.57 18.38 19.46 15.79C19.09 16.42 18.88 17.16 18.88 17.94C18.88 19.43 19.63 20.75 20.79 21.5C20.08 21.5 19.42 21.3 18.84 21C18.84 21 18.84 21 18.84 21.03C18.84 23.11 20.32 24.85 22.28 25.24C21.92 25.34 21.54 25.39 21.15 25.39C20.88 25.39 20.61 25.36 20.35 25.31C20.89 27 22.46 28.26 24.35 28.29C22.89 29.45 21.04 30.13 19.02 30.13C18.68 30.13 18.34 30.11 18 30.07C19.9 31.29 22.16 32 24.58 32C32.46 32 36.79 25.46 36.79 19.79C36.79 19.6 36.79 19.42 36.78 19.23C37.62 18.63 38.34 17.87 38.92 17Z" fill="#5F5F5F"/>
</mask>
<g mask="url(#mask0_1_2327)">
<rect x="8" y="4" width="40" height="40" fill="white"/>
</g>
<defs>
<filter id="filter0_d_1_2327" x="0" y="0" width="156" height="56" filterUnits="userSpaceOnUse" color-interpolation-filters="sRGB">
<feFlood flood-opacity="0" result="BackgroundImageFix"/>
<feColorMatrix in="SourceAlpha" type="matrix" values="0 0 0 0 0 0 0 0 0 0 0 0 0 0 0 0 0 0 127 0" result="hardAlpha"/>
<feOffset dy="4"/>
<feGaussianBlur stdDeviation="4"/>
<feColorMatrix type="matrix" values="0 0 0 0 0.333333 0 0 0 0 0.67451 0 0 0 0 0.933333 0 0 0 0.24 0"/>
<feBlend mode="multiply" in2="BackgroundImageFix" result="effect1_dropShadow_1_2327"/>
<feBlend mode="normal" in="SourceGraphic" in2="effect1_dropShadow_1_2327" result="shape"/>
</filter>
</defs>
</svg>
